<svg xmlns="http://www.w3.org/2000/svg" width="24" height="24" fill="none" viewBox="0 0 24 24"><path fill="#000" fill-rule="evenodd" d="M1.5 2C1.5 1.72386 1.72386 1.5 2 1.5H22C22.2761 1.5 22.5 1.72386 22.5 2V7C22.5 7.27614 22.2761 7.5 22 7.5H7.5V16.5H14C14.2761 16.5 14.5 16.7239 14.5 17V22C14.5 22.2761 14.2761 22.5 14 22.5H2C1.72386 22.5 1.5 22.2761 1.5 22V2ZM2.5 2.5V21.5H13.5V17.5H7C6.72386 17.5 6.5 17.2761 6.5 17V7C6.5 6.72386 6.72386 6.5 7 6.5H21.5V2.5H2.5Z" clip-rule="evenodd"/><path fill="#000" fill-rule="evenodd" d="M9 9.5C9 9.22386 9.22386 9 9.5 9H22C22.2761 9 22.5 9.22386 22.5 9.5V22C22.5 22.2761 22.2761 22.5 22 22.5H16.5C16.2239 22.5 16 22.2761 16 22V15H9.5C9.22386 15 9 14.7761 9 14.5V9.5ZM10 10V14H16.5C16.7761 14 17 14.2239 17 14.5V21.5H21.5V10H10Z" clip-rule="evenodd"/></svg>